<svg xmlns="http://www.w3.org/2000/svg" version="1.1" xmlns:xlink="http://www.w3.org/1999/xlink" width="512" height="512" x="0" y="0" viewBox="0 0 68 68" style="enable-background:new 0 0 512 512" xml:space="preserve" class=""><g><path d="m57.2 12.7-8.6-3.1-2.5-4.8c0-.1-.1-.1-.1-.2v-.1c-.1-.1-.2-.2-.3-.2-7.7-3.1-15.5-3.1-23.1 0-.1 0-.2.1-.3.2-.2.1-.3.2-.3.3l-2.6 4.7-8.5 3.1C5.6 14.3 2 19.1 2 24.7V65c0 .6.4 1 1 1h62c.6 0 1-.4 1-1V24.7c0-5.6-3.5-10.4-8.8-12zm-10.4-2.3-4.2 9.8-3.2-2.7-3.7-3.2C39 12.3 42 9.9 45 7zM36.6 37.9l.2 2.1-6 5.7.2-2.4zm-5.4 2.4 1.3-17.4h3l.9 12.4zm5.8 2.2.9 11.4-3.9 3.7-3.9-3.7.4-5.3zm-1.1-21.6h-3.8l-1.6-2.4 3.5-3 3.5 3zm7.6-15.2c-3 3-6.2 5.4-9.5 7.3-3.2-1.6-6.3-4-9.4-7.3 6.2-2.2 12.6-2.3 18.9 0zM23.1 7c3 3.2 6 5.7 9.2 7.4l-6.8 5.9-4.2-9.8zm-9 57H4v-4.2h10.1zm0-6.2H4v-2h10.1zM64 64H53.9v-4.2H64zm0-6.2H53.9v-2H64zm0-4H53.9V29c0-.6-.4-1-1-1s-1 .4-1 1v35H16.1V29c0-.6-.4-1-1-1s-1 .4-1 1v24.8H4V24.7C4 20 7 16 11.5 14.6l8-2.9 4.6 10.6c.1.3.4.5.7.6h.2c.2 0 .5-.1.7-.2l3.3-2.9 1.6 2.4L29 42.7l-.9 11.5c0 .3.1.6.3.8l4.9 4.6c.2.2.4.3.7.3s.5-.1.7-.3l4.9-4.6c.2-.2.3-.5.3-.8l-2.4-32.1 1.6-2.3 3.3 2.8c.2.2.6.3.9.2s.6-.3.7-.6l4.6-10.6 8.1 2.9C61 16 64 20 64 24.7z" fill="#000000" opacity="1" data-original="#000000" class=""></path><path d="M39.5 15.7c.2.2.4.3.7.3s.5-.1.7-.3.3-.5.3-.7c0-.3-.1-.5-.3-.7-.4-.4-1-.4-1.4 0-.2.2-.3.4-.3.7s.1.5.3.7zM27.8 16c.3 0 .5-.1.7-.3s.3-.5.3-.7c0-.3-.1-.5-.3-.7-.4-.4-1-.4-1.4 0-.2.2-.3.4-.3.7s.1.5.3.7.5.3.7.3z" fill="#000000" opacity="1" data-original="#000000" class=""></path></g></svg>